<?xml version="1.0" encoding="UTF-8" standalone="no"?>
<svg
   xmlns:dc="http://purl.org/dc/elements/1.1/"
   xmlns:cc="http://creativecommons.org/ns#"
   xmlns:rdf="http://www.w3.org/1999/02/22-rdf-syntax-ns#"
   xmlns:svg="http://www.w3.org/2000/svg"
   xmlns="http://www.w3.org/2000/svg"
   viewBox="0 0 200 200.00001"
   height="100"
   width="100"
   xml:space="preserve"
   id="svg2"
   version="1.1"><metadata
     id="metadata8"><rdf:RDF><cc:Work
         rdf:about=""><dc:format>image/svg+xml</dc:format><dc:type
           rdf:resource="http://purl.org/dc/dcmitype/StillImage" /><dc:title></dc:title></cc:Work></rdf:RDF></metadata><defs
     id="defs6"><clipPath
       id="clipPath18"
       clipPathUnits="userSpaceOnUse"><path
         style="clip-rule:evenodd"
         id="path16"
         d="m 224.3265,508.4799 72.5102,13.4322 69.4874,-12.8559 -75.3636,-28.2612 z" /></clipPath><linearGradient
       id="linearGradient26"
       spreadMethod="pad"
       gradientUnits="userSpaceOnUse"
       y2="508.54001"
       x2="238.39999"
       y1="508.54001"
       x1="351.98999"><stop
         id="stop20"
         offset="0"
         style="stop-opacity:1;stop-color:#babac2" /><stop
         id="stop22"
         offset="0.52"
         style="stop-opacity:1;stop-color:#ecedee" /><stop
         id="stop24"
         offset="1"
         style="stop-opacity:1;stop-color:#babac2" /></linearGradient><clipPath
       id="clipPath36"
       clipPathUnits="userSpaceOnUse"><path
         style="clip-rule:evenodd"
         id="path34"
         d="m 290.9234,481.1559 -66.4178,27.1961 13.0822,-74.7198 53.3356,-42.0392 z" /></clipPath><linearGradient
       id="linearGradient42"
       spreadMethod="pad"
       gradientUnits="userSpaceOnUse"
       y2="426.51001"
       x2="279.45001"
       y1="481.45999"
       x1="242.75"><stop
         id="stop38"
         offset="0"
         style="stop-opacity:1;stop-color:#2da4de" /><stop
         id="stop40"
         offset="1"
         style="stop-opacity:1;stop-color:#007eb9" /></linearGradient><clipPath
       id="clipPath52"
       clipPathUnits="userSpaceOnUse"><path
         style="clip-rule:evenodd"
         id="path50"
         d="M 290.8545,481.1559 366.8323,509.1066 351.989,433.8839 290.8545,391.593 Z" /></clipPath><linearGradient
       id="linearGradient58"
       spreadMethod="pad"
       gradientUnits="userSpaceOnUse"
       y2="432.31"
       x2="312.44"
       y1="476.31"
       x1="342.26999"><stop
         id="stop54"
         offset="0"
         style="stop-opacity:1;stop-color:#91d0f4" /><stop
         id="stop56"
         offset="1"
         style="stop-opacity:1;stop-color:#37a4dd" /></linearGradient></defs><g
     transform="matrix(1.3333333,0,0,-1.3333333,0,200.00005)"
     id="g10"><g
       transform="matrix(1.0378919,0,0,1.0378919,-231.77946,-399.05973)"
       id="g4560"><g
         id="g12"><g
           id="g14"
           clip-path="url(#clipPath18)"><path
             d="m 224.3265,508.4799 72.5102,13.4322 69.4874,-12.8559 -75.3636,-28.2612 z"
             style="fill:url(#linearGradient26);fill-rule:evenodd;stroke:none"
             id="path28" /></g></g><g
         id="g30"><g
           id="g32"
           clip-path="url(#clipPath36)"><path
             d="m 290.9234,481.1559 -66.4178,27.1961 13.0822,-74.7198 53.3356,-42.0392 z"
             style="fill:url(#linearGradient42);fill-rule:evenodd;stroke:none"
             id="path44" /></g></g><g
         id="g46"><g
           id="g48"
           clip-path="url(#clipPath52)"><path
             d="M 290.8545,481.1559 366.8323,509.1066 351.989,433.8839 290.8545,391.593 Z"
             style="fill:url(#linearGradient58);fill-rule:evenodd;stroke:none"
             id="path60" /></g></g><path
         d="m 334.2087,469.8544 c 3.6765,-2.0551 6.6679,-5.3175 8.2789,-9.2168 2.0035,-4.8493 2.7198,-9.8915 2.3125,-15.1373 -0.1046,-1.3453 0.1414,-2.6371 -1.1878,-3.3168 -0.5955,-0.3045 -2.1843,-1.6926 -2.5296,-1.3386 -0.6542,0.6721 2.6181,18.523 -11.0639,23.6577 -3.1309,1.1753 -4.1477,1.1628 -7.4256,1.3589 -2.8338,0.1698 -5.1152,-0.2111 -7.8642,-0.7611 -4.7245,-0.9447 -5.9,-2.6864 -5.633,0.3306 0.1009,1.1429 -0.0201,3.3386 0.1828,4.2556 0.1755,0.7934 0.9494,1.0137 1.7329,1.1461 4.5065,0.7616 7.3352,1.8368 12.2451,1.7299 3.8726,-0.0844 7.6889,-0.8844 10.9519,-2.7082 z m 13.0326,-16.4999 c -0.0831,3.2273 -0.777,6.4194 -1.7901,9.4218 -0.8861,2.6263 -2.3057,5.0349 -4.1015,7.1085 -2.6399,3.0486 -6.1585,5.03 -9.9723,6.1231 -5.4515,1.563 -24.8799,0.089 -25.9701,-2.8024 -0.002,-4.979 -0.5358,-10.36 -0.3518,-15.2073 0.3282,-0.1255 13.8756,5.9701 22.5332,2.742 11.1362,-4.1516 11.4542,-14.1012 10.762,-24.1529 0.2435,0.0167 7.6467,4.7684 7.7499,4.8665 1.1631,1.1061 1.192,9.9014 1.1407,11.9007 z m -31.4079,-27.7608 c 0.3586,-1.0573 -0.7965,-1.398 -2.3488,-2.4185 -0.6489,-0.4266 -5.7557,-3.8883 -6.1563,-3.4798 -0.2217,0.3974 0.22,6.0712 0.2169,7.1359 -0.005,1.7178 0.2299,1.7039 1.8547,1.9432 2.4381,0.3594 5.542,-0.5505 6.4335,-3.1808 z m 2.1713,-2.3009 c 0.5953,0.3464 1.1021,0.5947 1.1214,1.3728 0.042,1.6886 -0.0723,2.8341 -0.6437,4.3436 -0.7824,2.0664 -3.0654,3.3582 -5.1982,3.5365 -2.3964,0.1998 -4.2925,-0.521 -6.3802,-1.3692 -2.3366,-0.9496 -2.6711,-0.6888 -2.6847,-3.2422 -0.0238,-4.4878 -0.1525,-8.8665 -0.2194,-13.3067 0.428,0.0269 4.0598,2.4548 4.6964,2.863 2.9109,1.8655 6.344,4.0773 9.3084,5.8022 z m -3.3009,26.3832 c 8.0481,1.6855 15.1951,-2.2992 16.5064,-10.8334 0.1386,-0.902 0.2526,-1.6036 0.256,-2.5232 0.004,-1.074 0.2942,-1.4791 -0.639,-2.1243 -0.6003,-0.4152 -2.9202,-2.0463 -3.4803,-2.0259 -0.0652,0.5644 -0.1378,1.1945 -0.1463,1.7805 -0.0266,1.8139 -1.0587,4.5014 -2.035,6.0854 -1.2263,1.9902 -4.055,3.3678 -6.3079,3.7698 -1.8788,0.335 -5.5463,0.0777 -7.3307,-0.5709 -0.5423,-0.1976 -2.4452,-0.6676 -3.047,-0.8357 -0.104,0.0975 -0.2627,5.1565 0.2353,5.6016 0.2526,0.2256 1.8386,0.6681 3.3233,1.0431 1.2257,0.3099 2.3831,0.574 2.6652,0.633 z m -9.5627,0.4839 c -0.176,-0.3725 -0.3416,-11.5464 -0.4076,-13.0147 3.9132,1.0295 3.6008,2.0228 9.5139,2.9505 2.954,0.0154 5.1338,-0.4501 7.35,-2.5764 2.2566,-2.1653 2.9474,-5.074 3.0446,-8.098 0.0216,-0.6729 -0.1391,-1.1046 -0.1337,-1.7198 0.5334,0.0729 3.8585,2.3318 4.5031,2.8024 0.896,0.6539 4.0867,2.3828 4.5462,2.8984 0.811,0.9102 0.5448,8.1859 -0.148,10.093 -0.1808,0.4975 -0.2336,0.8947 -0.4192,1.3989 -2.3911,6.4919 -8.0808,10.0165 -14.9196,9.2294 -2.2856,-0.2631 -11.4035,-2.2111 -12.9297,-3.9637"
         style="fill:#ffffff;fill-opacity:1;fill-rule:evenodd;stroke:none"
         id="path62" /><path
         d="m 270.2934,425.6172 c 2.0123,-1.6186 3.4268,-3.3559 6.097,-3.9291 2.3139,-0.4966 6.7706,-0.1488 9.0122,0.633 1.5375,0.536 1.5307,2.0889 0.9054,3.3661 -0.6829,1.395 -1.038,1.757 -2.0614,2.8874 -4.7633,5.2603 -9.4765,10.6095 -14.212,15.901 -0.6129,0.246 -1.3689,0.8807 -2.0588,1.1605 -2.594,1.0516 -7.3012,1.4162 -7.5753,1.5933 -1.948,1.2566 -10.9282,15.0239 -13.3574,18.7563 l -1.2884,2.0472 c -0.5672,1.0122 1.4839,1.8961 2.5036,3.6434 0.8776,1.5046 -0.2101,3.2045 -1.0636,4.4784 -2.2416,3.3486 -4.2018,11.0319 -8.2618,11.6527 -1.1002,0.1683 -4.0289,-0.993 -5.0863,-1.5588 -1.9624,-1.05 -1.9519,-2.6759 -1.5117,-4.6777 2.7281,-12.407 24.361,-45.0187 37.9585,-55.9537 z m -9.5256,19.546 c 1.5849,-0.3429 3.4535,-0.5502 5.1021,-0.8458 2.16,-0.3878 2.666,-0.5128 4.1216,-2.0653 4.333,-4.6174 8.5859,-9.8762 12.882,-14.6175 0.6622,-0.7304 0.8961,-1.184 0.7509,-2.2019 -1.5647,-0.8206 -5.5057,-1.2997 -7.2626,-1.1795 -3.0963,0.2117 -3.1246,1.0259 -5.451,2.7476 -10.6832,7.9041 -32.6197,40.8376 -35.208,48.4169 -0.7163,2.0996 -1.876,5.0811 -2.1459,7.2269 -0.0875,0.6974 0.1347,0.9998 0.6942,1.3819 1.4735,1.0052 5.224,3.2559 6.4707,1.0729 1.6897,-2.9602 3.5419,-6.1429 5.0445,-9.1749 0.6585,-1.3283 1.4191,-1.8629 0.4337,-3.1861 -0.6256,-0.8402 -1.4964,-1.7612 -2.2138,-2.5362 -0.525,-0.5672 -0.2458,-1.2469 0.1482,-1.8958 1.6594,-2.7292 14.1528,-22.606 16.6334,-23.1432"
         style="fill:#ffffff;fill-opacity:1;fill-rule:evenodd;stroke:none"
         id="path64" /></g></g></svg>