<?xml version="1.0" encoding="UTF-8" standalone="no"?>
<!-- Created with Inkscape (http://www.inkscape.org/) -->

<svg
   xmlns:dc="http://purl.org/dc/elements/1.1/"
   xmlns:cc="http://creativecommons.org/ns#"
   xmlns:rdf="http://www.w3.org/1999/02/22-rdf-syntax-ns#"
   xmlns:svg="http://www.w3.org/2000/svg"
   xmlns="http://www.w3.org/2000/svg"
   xmlns:sodipodi="http://sodipodi.sourceforge.net/DTD/sodipodi-0.dtd"
   xmlns:inkscape="http://www.inkscape.org/namespaces/inkscape"
   width="256"
   height="256"
   viewBox="0 0 67.733332 67.733335"
   version="1.1"
   id="svg8"
   inkscape:version="0.92.1 r15371"
   sodipodi:docname="icon.svg"
   inkscape:export-filename="/home/lgrabowski/WordPress/telecube-ringy/assets/icon-128x128.png"
   inkscape:export-xdpi="48"
   inkscape:export-ydpi="48">
  <defs
     id="defs2">
    <clipPath
       clipPathUnits="userSpaceOnUse"
       id="clipPath18">
      <path
         d="m 224.3265,508.4799 72.5102,13.4322 69.4874,-12.8559 -75.3636,-28.2612 z"
         id="path16"
         style="clip-rule:evenodd" />
    </clipPath>
    <linearGradient
       x1="351.98999"
       y1="508.54001"
       x2="238.39999"
       y2="508.54001"
       gradientUnits="userSpaceOnUse"
       spreadMethod="pad"
       id="linearGradient26">
      <stop
         style="stop-opacity:1;stop-color:#babac2"
         offset="0"
         id="stop20" />
      <stop
         style="stop-opacity:1;stop-color:#ecedee"
         offset="0.52"
         id="stop22" />
      <stop
         style="stop-opacity:1;stop-color:#babac2"
         offset="1"
         id="stop24" />
    </linearGradient>
    <clipPath
       clipPathUnits="userSpaceOnUse"
       id="clipPath36">
      <path
         d="m 290.9234,481.1559 -66.4178,27.1961 13.0822,-74.7198 53.3356,-42.0392 z"
         id="path34"
         style="clip-rule:evenodd" />
    </clipPath>
    <linearGradient
       x1="242.75"
       y1="481.45999"
       x2="279.45001"
       y2="426.51001"
       gradientUnits="userSpaceOnUse"
       spreadMethod="pad"
       id="linearGradient42">
      <stop
         style="stop-opacity:1;stop-color:#2da4de"
         offset="0"
         id="stop38" />
      <stop
         style="stop-opacity:1;stop-color:#007eb9"
         offset="1"
         id="stop40" />
    </linearGradient>
    <clipPath
       clipPathUnits="userSpaceOnUse"
       id="clipPath52">
      <path
         d="M 290.8545,481.1559 366.8323,509.1066 351.989,433.8839 290.8545,391.593 Z"
         id="path50"
         style="clip-rule:evenodd" />
    </clipPath>
    <linearGradient
       x1="342.26999"
       y1="476.31"
       x2="312.44"
       y2="432.31"
       gradientUnits="userSpaceOnUse"
       spreadMethod="pad"
       id="linearGradient58">
      <stop
         style="stop-opacity:1;stop-color:#91d0f4"
         offset="0"
         id="stop54" />
      <stop
         style="stop-opacity:1;stop-color:#37a4dd"
         offset="1"
         id="stop56" />
    </linearGradient>
  </defs>
  <sodipodi:namedview
     id="base"
     pagecolor="#ffffff"
     bordercolor="#666666"
     borderopacity="1.0"
     inkscape:pageopacity="0.0"
     inkscape:pageshadow="2"
     inkscape:zoom="1.4"
     inkscape:cx="159.97005"
     inkscape:cy="54.506622"
     inkscape:document-units="px"
     inkscape:current-layer="layer1"
     showgrid="false"
     units="px"
     inkscape:window-width="1280"
     inkscape:window-height="927"
     inkscape:window-x="0"
     inkscape:window-y="27"
     inkscape:window-maximized="1" />
  <metadata
     id="metadata5">
    <rdf:RDF>
      <cc:Work
         rdf:about="">
        <dc:format>image/svg+xml</dc:format>
        <dc:type
           rdf:resource="http://purl.org/dc/dcmitype/StillImage" />
        <dc:title></dc:title>
      </cc:Work>
    </rdf:RDF>
  </metadata>
  <g
     inkscape:label="Layer 1"
     inkscape:groupmode="layer"
     id="layer1"
     transform="translate(0,-229.26665)">
    <g
       id="g4617">
      <rect
         style="fill:#ffffff;stroke:none;stroke-width:1.07701957"
         y="229.26665"
         x="1.8635254e-06"
         height="67.73333"
         width="67.73333"
         id="rect122" />
      <g
         transform="translate(-9.1296009e-8,0.14130933)"
         id="g120">
        <g
           id="g10"
           transform="matrix(0.34175396,0,0,-0.34175396,8.235118,280.89828)">
          <g
             id="g4560"
             transform="matrix(1.0378919,0,0,1.0378919,-231.77946,-399.05973)">
            <g
               id="g12">
              <g
                 clip-path="url(#clipPath18)"
                 id="g14">
                <path
                   id="path28"
                   style="fill:url(#linearGradient26);fill-rule:evenodd;stroke:none"
                   d="m 224.3265,508.4799 72.5102,13.4322 69.4874,-12.8559 -75.3636,-28.2612 z"
                   inkscape:connector-curvature="0" />
              </g>
            </g>
            <g
               id="g30">
              <g
                 clip-path="url(#clipPath36)"
                 id="g32">
                <path
                   id="path44"
                   style="fill:url(#linearGradient42);fill-rule:evenodd;stroke:none"
                   d="m 290.9234,481.1559 -66.4178,27.1961 13.0822,-74.7198 53.3356,-42.0392 z"
                   inkscape:connector-curvature="0" />
              </g>
            </g>
            <g
               id="g46">
              <g
                 clip-path="url(#clipPath52)"
                 id="g48">
                <path
                   id="path60"
                   style="fill:url(#linearGradient58);fill-rule:evenodd;stroke:none"
                   d="M 290.8545,481.1559 366.8323,509.1066 351.989,433.8839 290.8545,391.593 Z"
                   inkscape:connector-curvature="0" />
              </g>
            </g>
            <path
               id="path62"
               style="fill:#ffffff;fill-opacity:1;fill-rule:evenodd;stroke:none"
               d="m 334.2087,469.8544 c 3.6765,-2.0551 6.6679,-5.3175 8.2789,-9.2168 2.0035,-4.8493 2.7198,-9.8915 2.3125,-15.1373 -0.1046,-1.3453 0.1414,-2.6371 -1.1878,-3.3168 -0.5955,-0.3045 -2.1843,-1.6926 -2.5296,-1.3386 -0.6542,0.6721 2.6181,18.523 -11.0639,23.6577 -3.1309,1.1753 -4.1477,1.1628 -7.4256,1.3589 -2.8338,0.1698 -5.1152,-0.2111 -7.8642,-0.7611 -4.7245,-0.9447 -5.9,-2.6864 -5.633,0.3306 0.1009,1.1429 -0.0201,3.3386 0.1828,4.2556 0.1755,0.7934 0.9494,1.0137 1.7329,1.1461 4.5065,0.7616 7.3352,1.8368 12.2451,1.7299 3.8726,-0.0844 7.6889,-0.8844 10.9519,-2.7082 z m 13.0326,-16.4999 c -0.0831,3.2273 -0.777,6.4194 -1.7901,9.4218 -0.8861,2.6263 -2.3057,5.0349 -4.1015,7.1085 -2.6399,3.0486 -6.1585,5.03 -9.9723,6.1231 -5.4515,1.563 -24.8799,0.089 -25.9701,-2.8024 -0.002,-4.979 -0.5358,-10.36 -0.3518,-15.2073 0.3282,-0.1255 13.8756,5.9701 22.5332,2.742 11.1362,-4.1516 11.4542,-14.1012 10.762,-24.1529 0.2435,0.0167 7.6467,4.7684 7.7499,4.8665 1.1631,1.1061 1.192,9.9014 1.1407,11.9007 z m -31.4079,-27.7608 c 0.3586,-1.0573 -0.7965,-1.398 -2.3488,-2.4185 -0.6489,-0.4266 -5.7557,-3.8883 -6.1563,-3.4798 -0.2217,0.3974 0.22,6.0712 0.2169,7.1359 -0.005,1.7178 0.2299,1.7039 1.8547,1.9432 2.4381,0.3594 5.542,-0.5505 6.4335,-3.1808 z m 2.1713,-2.3009 c 0.5953,0.3464 1.1021,0.5947 1.1214,1.3728 0.042,1.6886 -0.0723,2.8341 -0.6437,4.3436 -0.7824,2.0664 -3.0654,3.3582 -5.1982,3.5365 -2.3964,0.1998 -4.2925,-0.521 -6.3802,-1.3692 -2.3366,-0.9496 -2.6711,-0.6888 -2.6847,-3.2422 -0.0238,-4.4878 -0.1525,-8.8665 -0.2194,-13.3067 0.428,0.0269 4.0598,2.4548 4.6964,2.863 2.9109,1.8655 6.344,4.0773 9.3084,5.8022 z m -3.3009,26.3832 c 8.0481,1.6855 15.1951,-2.2992 16.5064,-10.8334 0.1386,-0.902 0.2526,-1.6036 0.256,-2.5232 0.004,-1.074 0.2942,-1.4791 -0.639,-2.1243 -0.6003,-0.4152 -2.9202,-2.0463 -3.4803,-2.0259 -0.0652,0.5644 -0.1378,1.1945 -0.1463,1.7805 -0.0266,1.8139 -1.0587,4.5014 -2.035,6.0854 -1.2263,1.9902 -4.055,3.3678 -6.3079,3.7698 -1.8788,0.335 -5.5463,0.0777 -7.3307,-0.5709 -0.5423,-0.1976 -2.4452,-0.6676 -3.047,-0.8357 -0.104,0.0975 -0.2627,5.1565 0.2353,5.6016 0.2526,0.2256 1.8386,0.6681 3.3233,1.0431 1.2257,0.3099 2.3831,0.574 2.6652,0.633 z m -9.5627,0.4839 c -0.176,-0.3725 -0.3416,-11.5464 -0.4076,-13.0147 3.9132,1.0295 3.6008,2.0228 9.5139,2.9505 2.954,0.0154 5.1338,-0.4501 7.35,-2.5764 2.2566,-2.1653 2.9474,-5.074 3.0446,-8.098 0.0216,-0.6729 -0.1391,-1.1046 -0.1337,-1.7198 0.5334,0.0729 3.8585,2.3318 4.5031,2.8024 0.896,0.6539 4.0867,2.3828 4.5462,2.8984 0.811,0.9102 0.5448,8.1859 -0.148,10.093 -0.1808,0.4975 -0.2336,0.8947 -0.4192,1.3989 -2.3911,6.4919 -8.0808,10.0165 -14.9196,9.2294 -2.2856,-0.2631 -11.4035,-2.2111 -12.9297,-3.9637"
               inkscape:connector-curvature="0" />
            <path
               id="path64"
               style="fill:#ffffff;fill-opacity:1;fill-rule:evenodd;stroke:none"
               d="m 270.2934,425.6172 c 2.0123,-1.6186 3.4268,-3.3559 6.097,-3.9291 2.3139,-0.4966 6.7706,-0.1488 9.0122,0.633 1.5375,0.536 1.5307,2.0889 0.9054,3.3661 -0.6829,1.395 -1.038,1.757 -2.0614,2.8874 -4.7633,5.2603 -9.4765,10.6095 -14.212,15.901 -0.6129,0.246 -1.3689,0.8807 -2.0588,1.1605 -2.594,1.0516 -7.3012,1.4162 -7.5753,1.5933 -1.948,1.2566 -10.9282,15.0239 -13.3574,18.7563 l -1.2884,2.0472 c -0.5672,1.0122 1.4839,1.8961 2.5036,3.6434 0.8776,1.5046 -0.2101,3.2045 -1.0636,4.4784 -2.2416,3.3486 -4.2018,11.0319 -8.2618,11.6527 -1.1002,0.1683 -4.0289,-0.993 -5.0863,-1.5588 -1.9624,-1.05 -1.9519,-2.6759 -1.5117,-4.6777 2.7281,-12.407 24.361,-45.0187 37.9585,-55.9537 z m -9.5256,19.546 c 1.5849,-0.3429 3.4535,-0.5502 5.1021,-0.8458 2.16,-0.3878 2.666,-0.5128 4.1216,-2.0653 4.333,-4.6174 8.5859,-9.8762 12.882,-14.6175 0.6622,-0.7304 0.8961,-1.184 0.7509,-2.2019 -1.5647,-0.8206 -5.5057,-1.2997 -7.2626,-1.1795 -3.0963,0.2117 -3.1246,1.0259 -5.451,2.7476 -10.6832,7.9041 -32.6197,40.8376 -35.208,48.4169 -0.7163,2.0996 -1.876,5.0811 -2.1459,7.2269 -0.0875,0.6974 0.1347,0.9998 0.6942,1.3819 1.4735,1.0052 5.224,3.2559 6.4707,1.0729 1.6897,-2.9602 3.5419,-6.1429 5.0445,-9.1749 0.6585,-1.3283 1.4191,-1.8629 0.4337,-3.1861 -0.6256,-0.8402 -1.4964,-1.7612 -2.2138,-2.5362 -0.525,-0.5672 -0.2458,-1.2469 0.1482,-1.8958 1.6594,-2.7292 14.1528,-22.606 16.6334,-23.1432"
               inkscape:connector-curvature="0" />
          </g>
        </g>
        <g
           transform="matrix(0.17651704,0,0,-0.17651704,-18.671406,350.25134)"
           id="g66">
          <path
             d="m 121.6457,375.7382 h 35.4319 v -8.5427 h -12.8018 v -38.1439 l -10.9284,-0.7988 v 38.9427 H 118.607 Z m 83.0554,1.9985 v -48.879 l -10.0122,-0.6049 v 48.8115 z m 74.6683,-0.5315 c 3.5546,0 6.9471,-0.6461 10.0519,-1.8162 l 1.4148,-10.1404 c -2.9345,2.1266 -6.6059,3.3911 -10.5908,3.3911 -9.6171,0 -17.4133,-7.361 -17.4133,-16.4415 0,-9.0805 7.7962,-16.4415 17.4133,-16.4415 4.0989,0 7.8664,1.3379 10.8408,3.5753 l -1.023,-10.0734 c -3.2766,-1.3289 -6.8925,-2.0674 -10.6937,-2.0674 -14.817,0 -26.8283,11.196 -26.8283,25.007 0,13.811 12.0113,25.007 26.8283,25.007 z m -87.6011,-23.086 -27.5856,-14.561 c 5.3549,-6.493 15.6787,-3.2609 21.0552,1.391 l 3.7082,-7.177 c -2.1526,-1.8051 -4.6669,-3.2111 -7.543,-4.2027 -2.876,-0.9913 -5.8606,-1.4944 -8.9359,-1.4944 -5.8606,0 -10.817,1.7906 -14.8688,5.3569 -4.07,3.566 -6.0959,7.9316 -6.0959,13.0961 0,5.0312 2.0619,9.2486 6.1684,12.6518 4.1242,3.4183 9.1528,5.1203 15.1223,5.1203 3.8166,0 7.3981,-0.8881 10.7082,-2.6638 3.3284,-1.7756 6.078,-4.2766 8.2669,-7.5172 z m -12.3729,1.1245 c -1.031,0.6659 -2.0982,1.1543 -3.2378,1.48 -1.1216,0.3107 -2.3337,0.4734 -3.6,0.4734 -3.2558,0 -6.0054,-0.9025 -8.2485,-2.723 -2.2428,-1.8198 -3.3642,-4.0544 -3.3642,-6.6736 0,-0.4144 0.0179,-0.8138 0.0723,-1.2135 0.0542,-0.4141 0.1446,-0.858 0.2532,-1.3464 z m 126.1933,8.5238 v -20.7964 c 0,-2.7963 0.4768,-4.805 1.4133,-6.0375 0.9301,-1.2237 2.4602,-1.8496 4.5712,-1.8496 2.3207,0 4.0652,0.6511 5.2342,1.9534 1.169,1.3019 1.7623,3.2258 1.7623,5.771 v 20.071 l 10.1542,0.8881 v -34.9628 l -9.475,-0.7843 v 4.42 c -4.9851,-4.651 -16.0212,-6.6441 -20.9356,-1.0508 -1.9891,2.2644 -2.9835,5.6676 -2.9835,10.196 v 21.2938 z m 49.0547,-7.7247 c -3.2559,0 -5.9916,-0.9725 -8.2483,-2.9446 -2.2464,-1.9633 -3.3644,-4.3653 -3.3644,-7.1918 0,-2.8411 1.118,-5.2288 3.3644,-7.177 2.2567,-1.9573 4.9924,-2.9299 8.2483,-2.9299 3.2561,0 6.0239,0.9771 8.3029,2.9449 2.2785,1.9675 3.4189,4.3503 3.4189,7.162 0,2.7967 -1.1441,5.1903 -3.4189,7.1623 -2.2824,1.978 -5.0468,2.9741 -8.3029,2.9741 z m -11.2247,21.081 v -17.1743 c 3.46,3.1757 6.1535,4.1729 10.9284,4.1729 6.2768,0 11.5407,-1.7461 15.7737,-5.2234 4.2506,-3.4775 6.3672,-7.7689 6.3672,-12.8888 0,-5.135 -2.1166,-9.4116 -6.3312,-12.8299 -4.2148,-3.4036 -9.4966,-5.1052 -15.8097,-5.1052 -7.5608,0 -11.7785,1.7952 -15.4173,5.3716 -3.6315,3.5694 -5.4629,9.0859 -5.4629,16.5291 v 26.3489 z m 75.2752,-23.0046 -27.5856,-14.561 c 1.0131,-1.2282 2.243,-2.1308 3.6538,-2.7079 1.4108,-0.5774 3.0569,-0.8731 4.9382,-0.8731 2.189,0 4.3416,0.4142 6.4579,1.2578 2.1342,0.8436 4.1242,2.0863 6.0052,3.7142 l 3.7083,-7.177 c -2.1526,-1.8051 -4.6669,-3.2111 -7.543,-4.2027 -2.876,-0.9913 -5.8606,-1.4944 -8.9359,-1.4944 -5.8606,0 -10.817,1.7906 -14.8689,5.3569 -4.0699,3.566 -6.0959,7.9316 -6.0959,13.0961 0,5.0312 2.0622,9.2486 6.1685,12.6518 4.1241,3.4183 9.1528,5.1203 15.1223,5.1203 3.8165,0 7.3981,-0.8881 10.7084,-2.6638 3.3282,-1.7756 6.0778,-4.2766 8.2667,-7.5172 z m -12.373,1.1245 c -1.0309,0.6659 -2.0982,1.1543 -3.2377,1.48 -1.1217,0.3107 -2.3338,0.4734 -3.5997,0.4734 -3.2562,0 -6.0058,-0.9025 -8.2488,-2.723 -2.2428,-1.8198 -3.3642,-4.0544 -3.3642,-6.6736 0,-0.4144 0.0179,-0.8138 0.0723,-1.2135 0.0541,-0.4141 0.1446,-0.858 0.2531,-1.3464 z m -156.0625,-1.1245 -27.5854,-14.561 c 5.3547,-6.493 15.6787,-3.2609 21.0552,1.391 l 3.7083,-7.177 c -2.1529,-1.8051 -4.667,-3.2111 -7.5433,-4.2027 -2.8757,-0.9913 -5.8606,-1.4944 -8.9359,-1.4944 -5.8604,0 -10.817,1.7906 -14.8686,5.3569 -4.0702,3.566 -6.0962,7.9316 -6.0962,13.0961 0,5.0312 2.0622,9.2486 6.1685,12.6518 4.1241,3.4183 9.1531,5.1203 15.1223,5.1203 3.8165,0 7.3981,-0.8881 10.7084,-2.6638 3.3282,-1.7756 6.0778,-4.2766 8.2667,-7.5172 z m -12.373,1.1245 c -1.0309,0.6659 -2.0982,1.1543 -3.2377,1.48 -1.1217,0.3107 -2.3335,0.4734 -3.5997,0.4734 -3.2562,0 -6.0055,-0.9025 -8.2485,-2.723 -2.2431,-1.8198 -3.3645,-4.0544 -3.3645,-6.6736 0,-0.4144 0.0182,-0.8138 0.0723,-1.2135 0.0541,-0.4141 0.1446,-0.858 0.2534,-1.3464 z"
             style="fill:#6e6e6e;fill-opacity:1;fill-rule:nonzero;stroke:none"
             id="path68"
             inkscape:connector-curvature="0" />
          <path
             d="m 427.1805,327.4075 -5.8317,5.4278 5.544,5.7084 5.832,-5.544 z m 29.1994,12.786 c 0,1.8547 -0.4994,3.3814 -1.4986,4.5655 -0.9993,1.184 -2.3205,1.8751 -3.9634,2.067 -1.889,0 -3.4767,-0.5134 -4.7639,-1.5336 -1.2867,-1.0264 -1.9985,-2.3266 -2.1357,-3.9081 0,-1.9094 0.5888,-3.5385 1.7663,-4.8733 1.1772,-1.3346 2.6008,-2.0052 4.271,-2.0052 1.6154,0 3.0733,0.5677 4.3735,1.6971 1.3009,1.1364 1.9508,2.4641 1.9508,3.9906 z m -5.3526,13.6961 c 3.5186,0 6.5917,-1.2662 9.2199,-3.7919 2.6218,-2.5324 3.9359,-5.5854 3.9359,-9.1649 0,-3.6621 -1.3005,-6.8174 -3.9013,-9.4734 -2.601,-2.6487 -5.7223,-3.9768 -9.3639,-3.9768 -1.5055,0 -2.9977,0.3975 -4.4765,1.1912 -0.4927,0.2463 -1.0814,0.6431 -1.7657,1.1911 v -9.487 l -7.926,-0.739 v 33.5528 l 7.2686,0.6979 v -2.9571 c 0.8014,0.7943 1.4171,1.3281 1.855,1.6019 1.5129,0.9034 3.231,1.3552 5.154,1.3552 z m 17.7967,-26.1195 v 33.7994 l 7.8438,0.7804 v -33.8403 z"
             style="fill:#6e6e6e;fill-opacity:1;fill-rule:nonzero;stroke:none"
             id="path70"
             inkscape:connector-curvature="0" />
        </g>
      </g>
    </g>
  </g>
</svg>
